<svg width="16" height="19" viewBox="0 0 16 19" fill="none" xmlns="http://www.w3.org/2000/svg">
<path d="M1.33333 18.5C0.977778 18.5 0.666667 18.365 0.4 18.095C0.133333 17.825 0 17.51 0 17.15V3.2C0 2.84 0.133333 2.525 0.4 2.255C0.666667 1.985 0.977778 1.85 1.33333 1.85H2.77778V0.5H4.22222V1.85H11.7778V0.5H13.2222V1.85H14.6667C15.0222 1.85 15.3333 1.985 15.6 2.255C15.8667 2.525 16 2.84 16 3.2V17.15C16 17.51 15.8667 17.825 15.6 18.095C15.3333 18.365 15.0222 18.5 14.6667 18.5H1.33333ZM1.33333 17.15H14.6667V7.475H1.33333V17.15ZM1.33333 6.125H14.6667V3.2H1.33333V6.125ZM8 11.3C7.74815 11.3 7.53704 11.2138 7.36667 11.0413C7.1963 10.8688 7.11111 10.655 7.11111 10.4C7.11111 10.145 7.1963 9.93125 7.36667 9.75875C7.53704 9.58625 7.74815 9.5 8 9.5C8.25185 9.5 8.46296 9.58625 8.63333 9.75875C8.8037 9.93125 8.88889 10.145 8.88889 10.4C8.88889 10.655 8.8037 10.8688 8.63333 11.0413C8.46296 11.2138 8.25185 11.3 8 11.3ZM4.44444 11.3C4.19259 11.3 3.98148 11.2138 3.81111 11.0413C3.64074 10.8688 3.55556 10.655 3.55556 10.4C3.55556 10.145 3.64074 9.93125 3.81111 9.75875C3.98148 9.58625 4.19259 9.5 4.44444 9.5C4.6963 9.5 4.90741 9.58625 5.07778 9.75875C5.24815 9.93125 5.33333 10.145 5.33333 10.4C5.33333 10.655 5.24815 10.8688 5.07778 11.0413C4.90741 11.2138 4.6963 11.3 4.44444 11.3ZM11.5556 11.3C11.3037 11.3 11.0926 11.2138 10.9222 11.0413C10.7519 10.8688 10.6667 10.655 10.6667 10.4C10.6667 10.145 10.7519 9.93125 10.9222 9.75875C11.0926 9.58625 11.3037 9.5 11.5556 9.5C11.8074 9.5 12.0185 9.58625 12.1889 9.75875C12.3593 9.93125 12.4444 10.145 12.4444 10.4C12.4444 10.655 12.3593 10.8688 12.1889 11.0413C12.0185 11.2138 11.8074 11.3 11.5556 11.3ZM8 14.9C7.74815 14.9 7.53704 14.8138 7.36667 14.6413C7.1963 14.4688 7.11111 14.255 7.11111 14C7.11111 13.745 7.1963 13.5313 7.36667 13.3588C7.53704 13.1863 7.74815 13.1 8 13.1C8.25185 13.1 8.46296 13.1863 8.63333 13.3588C8.8037 13.5313 8.88889 13.745 8.88889 14C8.88889 14.255 8.8037 14.4688 8.63333 14.6413C8.46296 14.8138 8.25185 14.9 8 14.9ZM4.44444 14.9C4.19259 14.9 3.98148 14.8138 3.81111 14.6413C3.64074 14.4688 3.55556 14.255 3.55556 14C3.55556 13.745 3.64074 13.5313 3.81111 13.3588C3.98148 13.1863 4.19259 13.1 4.44444 13.1C4.6963 13.1 4.90741 13.1863 5.07778 13.3588C5.24815 13.5313 5.33333 13.745 5.33333 14C5.33333 14.255 5.24815 14.4688 5.07778 14.6413C4.90741 14.8138 4.6963 14.9 4.44444 14.9ZM11.5556 14.9C11.3037 14.9 11.0926 14.8138 10.9222 14.6413C10.7519 14.4688 10.6667 14.255 10.6667 14C10.6667 13.745 10.7519 13.5313 10.9222 13.3588C11.0926 13.1863 11.3037 13.1 11.5556 13.1C11.8074 13.1 12.0185 13.1863 12.1889 13.3588C12.3593 13.5313 12.4444 13.745 12.4444 14C12.4444 14.255 12.3593 14.4688 12.1889 14.6413C12.0185 14.8138 11.8074 14.9 11.5556 14.9Z" fill="#262626"/>
</svg>
