<svg width="18" height="19" viewBox="0 0 18 19" fill="none" xmlns="http://www.w3.org/2000/svg">
<path d="M11.97 13.73L13.23 12.47L9.9 9.14V5H8.1V9.86L11.97 13.73ZM9 18.5C7.755 18.5 6.585 18.2638 5.49 17.7913C4.395 17.3188 3.4425 16.6775 2.6325 15.8675C1.8225 15.0575 1.18125 14.105 0.70875 13.01C0.23625 11.915 0 10.745 0 9.5C0 8.255 0.23625 7.085 0.70875 5.99C1.18125 4.895 1.8225 3.9425 2.6325 3.1325C3.4425 2.3225 4.395 1.68125 5.49 1.20875C6.585 0.73625 7.755 0.5 9 0.5C10.245 0.5 11.415 0.73625 12.51 1.20875C13.605 1.68125 14.5575 2.3225 15.3675 3.1325C16.1775 3.9425 16.8188 4.895 17.2913 5.99C17.7638 7.085 18 8.255 18 9.5C18 10.745 17.7638 11.915 17.2913 13.01C16.8188 14.105 16.1775 15.0575 15.3675 15.8675C14.5575 16.6775 13.605 17.3188 12.51 17.7913C11.415 18.2638 10.245 18.5 9 18.5ZM9 16.7C10.995 16.7 12.6938 15.9988 14.0963 14.5963C15.4988 13.1938 16.2 11.495 16.2 9.5C16.2 7.505 15.4988 5.80625 14.0963 4.40375C12.6938 3.00125 10.995 2.3 9 2.3C7.005 2.3 5.30625 3.00125 3.90375 4.40375C2.50125 5.80625 1.8 7.505 1.8 9.5C1.8 11.495 2.50125 13.1938 3.90375 14.5963C5.30625 15.9988 7.005 16.7 9 16.7Z" fill="#262626"/>
</svg>
