<svg width="17" height="17" viewBox="0 0 17 17" fill="#fff" xmlns="http://www.w3.org/2000/svg">
<path fill-rule="evenodd" clip-rule="evenodd" d="M1.3211 16.3211C1.08165 16.0816 0.95189 15.7521 0.960367 15.405C0.968845 15.0579 1.11487 14.7216 1.36631 14.4702L12.3505 3.48598L4.40451 3.68191C4.05696 3.6904 3.72702 3.56047 3.48726 3.32072C3.24751 3.08097 3.11759 2.75102 3.12608 2.40347C3.13457 2.05592 3.28077 1.71923 3.53253 1.46747C3.78429 1.21571 4.12098 1.06951 4.46853 1.06102L15.574 0.789773C15.7461 0.78535 15.9158 0.814933 16.0733 0.876827C16.2308 0.93872 16.373 1.03171 16.4917 1.15046C16.6105 1.26922 16.7035 1.41141 16.7654 1.56889C16.8273 1.72637 16.8568 1.89605 16.8524 2.06821L16.5812 13.1737C16.5727 13.5212 16.4265 13.8579 16.1747 14.1097C15.923 14.3614 15.5863 14.5076 15.2387 14.5161C14.8912 14.5246 14.5612 14.3947 14.3215 14.1549C14.0817 13.9152 13.9518 13.5852 13.9603 13.2377L14.1562 5.29168L3.17201 16.2759C2.92057 16.5273 2.58431 16.6734 2.23719 16.6818C1.89008 16.6903 1.56055 16.5606 1.3211 16.3211Z" />
</svg>
