<svg width="299" height="225" viewBox="0 0 299 225" fill="none" xmlns="http://www.w3.org/2000/svg">
<path d="M224.283 75.449L298.794 75.449L298.794 149.96C257.642 149.96 224.283 116.6 224.283 75.449Z" fill="#181818"/>
<path d="M0.617642 75.449L75.1261 75.449L75.1261 149.96C33.9768 149.96 0.617644 116.6 0.617642 75.449Z" fill="#0068FF"/>
<path d="M149.887 75.449L224.396 75.449L224.396 149.96L149.887 149.96L149.887 75.449Z" fill="#0068FF"/>
<path d="M112.632 75.449C133.207 75.449 149.887 92.1276 149.887 112.704C149.887 133.279 133.207 149.96 112.632 149.96C92.0575 149.96 75.3768 133.279 75.3768 112.704C75.3768 92.1276 92.0575 75.449 112.632 75.449Z" fill="#181818"/>
<path d="M224.035 149.681C265.186 149.681 298.543 183.041 298.543 224.19L224.035 224.19L224.035 149.681Z" fill="#0068FF"/>
<path d="M149.524 149.681L224.035 149.681L224.035 224.19C182.883 224.19 149.524 190.833 149.524 149.681Z" fill="#181818"/>
<path d="M75.1261 149.681L149.639 149.681L149.639 224.19L75.1261 224.19L75.1261 149.681Z" fill="#0068FF"/>
<path d="M37.873 149.681C58.4477 149.681 75.1262 166.362 75.1262 186.937C75.1262 207.514 58.4477 224.19 37.873 224.19C17.2963 224.19 0.617706 207.514 0.617705 186.937C0.617704 166.362 17.2963 149.681 37.873 149.681Z" fill="#181818"/>
<path d="M149.887 75.4149L149.887 0.904369L224.396 0.904366C224.396 42.0558 191.037 75.4149 149.887 75.4149Z" fill="#181818"/>
<path d="M150.038 0.8536L0.617611 0.853606C0.617613 42.1113 34.0639 75.5597 75.3216 75.5597L75.3322 75.5597C116.592 75.5597 150.038 42.1112 150.038 0.8536Z" fill="#0068FF"/>
<path d="M299 76.2987L224.489 76.2987L224.489 75.2025C224.489 34.0511 257.851 0.689752 299 0.689751L299 76.2987Z" fill="#0068FF"/>
</svg>
