<svg width="299" height="224" viewBox="0 0 299 224" fill="none" xmlns="http://www.w3.org/2000/svg">
<path d="M223.783 74.9493L298.294 74.9493L298.294 149.46C257.142 149.46 223.783 116.101 223.783 74.9493Z" fill="#00203F"/>
<path d="M0.117639 74.9493L74.6261 74.9493L74.6261 149.46C33.4768 149.46 0.117641 116.101 0.117639 74.9493Z" fill="#ADEFD1"/>
<path d="M149.387 74.9493L223.896 74.9493L223.896 149.46L149.387 149.46L149.387 74.9493Z" fill="#ADEFD1"/>
<path d="M112.132 74.9493C132.707 74.9493 149.387 91.6278 149.387 112.205C149.387 132.779 132.707 149.46 112.132 149.46C91.5575 149.46 74.8768 132.779 74.8768 112.205C74.8768 91.6278 91.5575 74.9493 112.132 74.9493Z" fill="#00203F"/>
<path d="M223.535 149.182C264.686 149.182 298.043 182.541 298.043 223.69L223.535 223.69L223.535 149.182Z" fill="#ADEFD1"/>
<path d="M149.024 149.182L223.535 149.182L223.535 223.69C182.383 223.69 149.024 190.333 149.024 149.182Z" fill="#00203F"/>
<path d="M74.6261 149.182L149.139 149.182L149.139 223.69L74.6261 223.69L74.6261 149.182Z" fill="#ADEFD1"/>
<path d="M37.373 149.182C57.9477 149.182 74.6262 165.862 74.6262 186.437C74.6262 207.014 57.9477 223.69 37.373 223.69C16.7963 223.69 0.117706 207.014 0.117705 186.437C0.117704 165.862 16.7963 149.182 37.373 149.182Z" fill="#00203F"/>
<path d="M149.387 74.9153L149.387 0.404735L223.896 0.404732C223.896 41.5562 190.537 74.9153 149.387 74.9153Z" fill="#00203F"/>
<path d="M149.538 0.353722L0.117604 0.353728C0.117606 41.6114 33.5639 75.0598 74.8216 75.0598L74.8322 75.0598C116.092 75.0598 149.538 41.6114 149.538 0.353722Z" fill="#ADEFD1"/>
<path d="M298.5 75.7991L223.989 75.7991L223.989 74.7029C223.989 33.5514 257.351 0.190119 298.5 0.190117L298.5 75.7991Z" fill="#ADEFD1"/>
</svg>
