<svg width="299" height="224" viewBox="0 0 299 224" fill="none" xmlns="http://www.w3.org/2000/svg">
<path d="M224.283 74.9493L298.794 74.9493L298.794 149.46C257.642 149.46 224.283 116.101 224.283 74.9493Z" fill="#5F4B8B"/>
<path d="M0.617642 74.9493L75.1261 74.9493L75.1261 149.46C33.9768 149.46 0.617644 116.101 0.617642 74.9493Z" fill="#E69A8D"/>
<path d="M149.887 74.9493L224.396 74.9493L224.396 149.46L149.887 149.46L149.887 74.9493Z" fill="#E69A8D"/>
<path d="M112.632 74.9493C133.207 74.9493 149.887 91.6278 149.887 112.205C149.887 132.779 133.207 149.46 112.632 149.46C92.0575 149.46 75.3768 132.779 75.3768 112.205C75.3768 91.6278 92.0575 74.9493 112.632 74.9493Z" fill="#5F4B8B"/>
<path d="M224.035 149.182C265.186 149.182 298.543 182.541 298.543 223.69L224.035 223.69L224.035 149.182Z" fill="#E69A8D"/>
<path d="M149.524 149.182L224.035 149.182L224.035 223.69C182.883 223.69 149.524 190.333 149.524 149.182Z" fill="#5F4B8B"/>
<path d="M75.1261 149.182L149.639 149.182L149.639 223.69L75.1261 223.69L75.1261 149.182Z" fill="#E69A8D"/>
<path d="M37.873 149.182C58.4477 149.182 75.1262 165.862 75.1262 186.437C75.1262 207.014 58.4477 223.69 37.873 223.69C17.2963 223.69 0.617706 207.014 0.617705 186.437C0.617704 165.862 17.2963 149.182 37.873 149.182Z" fill="#5F4B8B"/>
<path d="M149.887 74.9153L149.887 0.404735L224.396 0.404732C224.396 41.5562 191.037 74.9153 149.887 74.9153Z" fill="#5F4B8B"/>
<path d="M150.038 0.353722L0.617611 0.353728C0.617613 41.6114 34.0639 75.0598 75.3216 75.0598L75.3322 75.0598C116.592 75.0598 150.038 41.6114 150.038 0.353722Z" fill="#E69A8D"/>
<path d="M299 75.7991L224.489 75.7991L224.489 74.7029C224.489 33.5514 257.851 0.190119 299 0.190117L299 75.7991Z" fill="#E69A8D"/>
</svg>
