<svg width="299" height="225" viewBox="0 0 299 225" fill="none" xmlns="http://www.w3.org/2000/svg">
<path d="M223.783 75.449L298.294 75.449L298.294 149.96C257.142 149.96 223.783 116.6 223.783 75.449Z" fill="#EB5757"/>
<path d="M0.117639 75.449L74.6261 75.449L74.6261 149.96C33.4768 149.96 0.117641 116.6 0.117639 75.449Z" fill="#F4AB6B"/>
<path d="M149.387 75.449L223.896 75.449L223.896 149.96L149.387 149.96L149.387 75.449Z" fill="#F4AB6B"/>
<path d="M112.132 75.449C132.707 75.449 149.387 92.1276 149.387 112.704C149.387 133.279 132.707 149.96 112.132 149.96C91.5575 149.96 74.8768 133.279 74.8768 112.704C74.8768 92.1276 91.5575 75.449 112.132 75.449Z" fill="#EB5757"/>
<path d="M223.535 149.681C264.686 149.681 298.043 183.041 298.043 224.19L223.535 224.19L223.535 149.681Z" fill="#F4AB6B"/>
<path d="M149.024 149.681L223.535 149.681L223.535 224.19C182.383 224.19 149.024 190.833 149.024 149.681Z" fill="#EB5757"/>
<path d="M74.6261 149.681L149.139 149.681L149.139 224.19L74.6261 224.19L74.6261 149.681Z" fill="#F4AB6B"/>
<path d="M37.373 149.681C57.9477 149.681 74.6262 166.362 74.6262 186.937C74.6262 207.514 57.9477 224.19 37.373 224.19C16.7963 224.19 0.117706 207.514 0.117705 186.937C0.117704 166.362 16.7963 149.681 37.373 149.681Z" fill="#EB5757"/>
<path d="M149.387 75.4149L149.387 0.904369L223.896 0.904366C223.896 42.0558 190.537 75.4149 149.387 75.4149Z" fill="#EB5757"/>
<path d="M149.538 0.8536L0.117604 0.853606C0.117606 42.1113 33.5639 75.5597 74.8216 75.5597L74.8322 75.5597C116.092 75.5597 149.538 42.1112 149.538 0.8536Z" fill="#F4AB6B"/>
<path d="M298.5 76.2987L223.989 76.2987L223.989 75.2025C223.989 34.0511 257.351 0.689752 298.5 0.689751L298.5 76.2987Z" fill="#F4AB6B"/>
</svg>
