<svg width="40" height="35" viewBox="0 0 40 35" fill="none" xmlns="http://www.w3.org/2000/svg">
<path d="M7.5 35H5L3.375 30H0V17.4375C0 16.0625 0.489583 14.8958 1.46875 13.9375C2.44792 12.9792 3.625 12.5 5 12.5V5C5 3.625 5.48958 2.44792 6.46875 1.46875C7.44792 0.489583 8.625 0 10 0H30C31.375 0 32.5521 0.489583 33.5312 1.46875C34.5104 2.44792 35 3.625 35 5V12.5C36.375 12.5 37.5521 12.9896 38.5312 13.9688C39.5104 14.9479 40 16.125 40 17.5V30H36.625L35 35H32.5L30.875 30H9.125L7.5 35ZM22.5 12.5H30V5H22.5V12.5ZM10 12.5H17.5V5H10V12.5ZM5 25H35V17.5H5V25Z" fill="black"/>
</svg>
