<svg width="40" height="30" viewBox="0 0 40 30" fill="none" xmlns="http://www.w3.org/2000/svg">
<path d="M23.6364 11.0625V7.875C24.6364 7.4375 25.6591 7.10937 26.7045 6.89062C27.75 6.67188 28.8485 6.5625 30 6.5625C30.7879 6.5625 31.5606 6.625 32.3182 6.75C33.0758 6.875 33.8182 7.03125 34.5455 7.21875V10.2188C33.8182 9.9375 33.0833 9.72656 32.3409 9.58594C31.5985 9.44531 30.8182 9.375 30 9.375C28.8485 9.375 27.7424 9.52344 26.6818 9.82031C25.6212 10.1172 24.6061 10.5313 23.6364 11.0625ZM23.6364 21.375V18.1875C24.6364 17.75 25.6591 17.4219 26.7045 17.2031C27.75 16.9844 28.8485 16.875 30 16.875C30.7879 16.875 31.5606 16.9375 32.3182 17.0625C33.0758 17.1875 33.8182 17.3438 34.5455 17.5312V20.5312C33.8182 20.25 33.0833 20.0391 32.3409 19.8984C31.5985 19.7578 30.8182 19.6875 30 19.6875C28.8485 19.6875 27.7424 19.8281 26.6818 20.1094C25.6212 20.3906 24.6061 20.8125 23.6364 21.375ZM23.6364 16.2188V13.0312C24.6364 12.5938 25.6591 12.2656 26.7045 12.0469C27.75 11.8281 28.8485 11.7188 30 11.7188C30.7879 11.7188 31.5606 11.7812 32.3182 11.9062C33.0758 12.0313 33.8182 12.1875 34.5455 12.375V15.375C33.8182 15.0938 33.0833 14.8828 32.3409 14.7422C31.5985 14.6016 30.8182 14.5312 30 14.5312C28.8485 14.5312 27.7424 14.6797 26.6818 14.9766C25.6212 15.2734 24.6061 15.6875 23.6364 16.2188ZM10 22.5C11.4242 22.5 12.8106 22.6641 14.1591 22.9922C15.5076 23.3203 16.8485 23.8125 18.1818 24.4688V6C16.9394 5.25 15.6212 4.6875 14.2273 4.3125C12.8333 3.9375 11.4242 3.75 10 3.75C8.90909 3.75 7.82576 3.85938 6.75 4.07812C5.67424 4.29687 4.63636 4.625 3.63636 5.0625V23.625C4.69697 23.25 5.75 22.9688 6.79545 22.7812C7.84091 22.5938 8.90909 22.5 10 22.5ZM21.8182 24.4688C23.1515 23.8125 24.4924 23.3203 25.8409 22.9922C27.1894 22.6641 28.5758 22.5 30 22.5C31.0909 22.5 32.1591 22.5938 33.2045 22.7812C34.25 22.9688 35.303 23.25 36.3636 23.625V5.0625C35.3636 4.625 34.3258 4.29687 33.25 4.07812C32.1742 3.85938 31.0909 3.75 30 3.75C28.5758 3.75 27.1667 3.9375 25.7727 4.3125C24.3788 4.6875 23.0606 5.25 21.8182 6V24.4688ZM20 30C18.5455 28.8125 16.9697 27.8906 15.2727 27.2344C13.5758 26.5781 11.8182 26.25 10 26.25C8.72727 26.25 7.47727 26.4219 6.25 26.7656C5.02273 27.1094 3.84848 27.5938 2.72727 28.2188C2.09091 28.5625 1.47727 28.5469 0.886364 28.1719C0.295455 27.7969 0 27.25 0 26.5312V3.9375C0 3.59375 0.0833333 3.26562 0.25 2.95312C0.416667 2.64063 0.666667 2.40625 1 2.25C2.39394 1.5 3.84849 0.9375 5.36364 0.5625C6.87879 0.1875 8.42424 0 10 0C11.7576 0 13.4773 0.234375 15.1591 0.703125C16.8409 1.17188 18.4545 1.875 20 2.8125C21.5455 1.875 23.1591 1.17188 24.8409 0.703125C26.5227 0.234375 28.2424 0 30 0C31.5758 0 33.1212 0.1875 34.6364 0.5625C36.1515 0.9375 37.6061 1.5 39 2.25C39.3333 2.40625 39.5833 2.64063 39.75 2.95312C39.9167 3.26562 40 3.59375 40 3.9375V26.5312C40 27.25 39.7045 27.7969 39.1136 28.1719C38.5227 28.5469 37.9091 28.5625 37.2727 28.2188C36.1515 27.5938 34.9773 27.1094 33.75 26.7656C32.5227 26.4219 31.2727 26.25 30 26.25C28.1818 26.25 26.4242 26.5781 24.7273 27.2344C23.0303 27.8906 21.4545 28.8125 20 30Z" fill="black"/>
</svg>
