<svg width="31" height="36" viewBox="0 0 31 36" fill="none" xmlns="http://www.w3.org/2000/svg">
<path d="M6.38235 7.2C5.37941 7.2 4.52083 6.8475 3.80662 6.1425C3.0924 5.4375 2.73529 4.59 2.73529 3.6C2.73529 2.61 3.0924 1.7625 3.80662 1.0575C4.52083 0.3525 5.37941 0 6.38235 0C7.38529 0 8.24387 0.3525 8.95809 1.0575C9.6723 1.7625 10.0294 2.61 10.0294 3.6C10.0294 4.59 9.6723 5.4375 8.95809 6.1425C8.24387 6.8475 7.38529 7.2 6.38235 7.2ZM25.5294 16.2C24.7696 16.2 24.1238 15.9375 23.5919 15.4125C23.06 14.8875 22.7941 14.25 22.7941 13.5C22.7941 12.75 23.06 12.1125 23.5919 11.5875C24.1238 11.0625 24.7696 10.8 25.5294 10.8C26.2892 10.8 26.935 11.0625 27.4669 11.5875C27.9988 12.1125 28.2647 12.75 28.2647 13.5C28.2647 14.25 27.9988 14.8875 27.4669 15.4125C26.935 15.9375 26.2892 16.2 25.5294 16.2ZM2.73529 36V23.4H0V12.6C0 11.61 0.357108 10.7625 1.07132 10.0575C1.78554 9.3525 2.64412 9 3.64706 9H9.11765C9.78627 9 10.3941 9.1575 10.9412 9.4725C11.4882 9.7875 11.9289 10.23 12.2632 10.8L18.7824 21.915L20.6515 19.17C20.8946 18.81 21.2213 18.525 21.6316 18.315C22.0419 18.105 22.475 18 22.9309 18H28.2647C29.0245 18 29.6703 18.2625 30.2022 18.7875C30.7341 19.3125 31 19.95 31 20.7V27H29.1765V36H21.8824V23.22L20.4691 25.2H16.4574L11.8529 17.28V36H2.73529Z" fill="black"/>
</svg>
