<svg width="30" height="26" viewBox="0 0 50 46" fill="#181818" xmlns="http://www.w3.org/2000/svg">
<path d="M25 45.6897L22.0952 43.0503C17.7329 39.0501 14.1254 35.6126 11.2728 32.7378C8.42024 29.863 6.1598 27.3045 4.49146 25.0623C2.82308 22.8201 1.65742 20.7748 0.994476 18.9265C0.331492 17.0782 0 15.2026 0 13.2997C0 9.52466 1.25928 6.36428 3.77784 3.81857C6.2964 1.27286 9.42307 0 13.1579 0C15.4555 0 17.6265 0.543099 19.671 1.62929C21.7156 2.71544 23.4919 4.27304 25 6.3021C26.5081 4.27304 28.2844 2.71544 30.329 1.62929C32.3735 0.543099 34.5445 0 36.8421 0C40.5769 0 43.7036 1.27286 46.2222 3.81857C48.7407 6.36428 50 9.52466 50 13.2997C50 15.2026 49.6685 17.0782 49.0055 18.9265C48.3426 20.7748 47.1769 22.8201 45.5085 25.0623C43.8402 27.3045 41.584 29.863 38.7398 32.7378C35.8957 35.6126 32.284 39.0501 27.9048 43.0503L25 45.6897ZM25 40.2983C29.2105 36.4686 32.6755 33.1863 35.3948 30.4513C38.1141 27.7163 40.2632 25.3403 41.8421 23.3232C43.4211 21.306 44.5176 19.5148 45.1316 17.9495C45.7457 16.3842 46.0527 14.8343 46.0527 13.2997C46.0527 10.6398 45.1755 8.42313 43.4211 6.64982C41.6667 4.87652 39.4737 3.98987 36.8421 3.98987C34.7638 3.98987 32.8433 4.58581 31.0805 5.77769C29.3177 6.96953 27.9217 8.62774 26.8927 10.7523H23.1073C22.0614 8.61072 20.6613 6.94823 18.9069 5.76486C17.1525 4.58153 15.2362 3.98987 13.1579 3.98987C10.5432 3.98987 8.35439 4.87652 6.59153 6.64982C4.82872 8.42313 3.94731 10.6398 3.94731 13.2997C3.94731 14.8343 4.25433 16.3842 4.86837 17.9495C5.4824 19.5148 6.5789 21.306 8.15785 23.3232C9.7368 25.3403 11.8859 27.7121 14.6052 30.4385C17.3245 33.165 20.7895 36.4516 25 40.2983Z"/>
</svg>
