<svg width="15" height="36" viewBox="0 0 15 36" fill="none" xmlns="http://www.w3.org/2000/svg">
<path d="M3.75 36V27H0V14.4C0 12.9 0.546875 11.625 1.64062 10.575C2.73438 9.525 4.0625 9 5.625 9C7.1875 9 8.51562 9.525 9.60938 10.575C10.7031 11.625 11.25 12.9 11.25 14.4C12.375 14.85 13.2812 15.57 13.9688 16.56C14.6563 17.55 15 18.63 15 19.8V27H9.375V36H3.75ZM5.625 7.2C4.59375 7.2 3.71094 6.8475 2.97656 6.1425C2.24219 5.4375 1.875 4.59 1.875 3.6C1.875 2.61 2.24219 1.7625 2.97656 1.0575C3.71094 0.3525 4.59375 0 5.625 0C6.65625 0 7.53906 0.3525 8.27344 1.0575C9.00781 1.7625 9.375 2.61 9.375 3.6C9.375 4.59 9.00781 5.4375 8.27344 6.1425C7.53906 6.8475 6.65625 7.2 5.625 7.2Z" fill="black"/>
</svg>
